# xmcd
#
# Track frame offsets: 
#        150
#        11100
#        22290
#        35025
#        45897
#        56477
#        67375
#        83497
#        100972
#        116192
#        134645
#        154157
#
# Disc length: 2275 seconds
#
# Revision: 2
# Processed by: cddbd v1.5.2PL0 Copyright (c) Steve Scherf et al.
# Submitted via: ExactAudioCopyFreeDBPlugin 1.0
#
DISCID=ab08e10c
DTITLE=Various Artist - Christmas Memories from Elvis and Alabama
DYEAR=1993
DGENRE=Christmas
TTITLE0=Elvis Presley - White Christmas
TTITLE1=Elvis Presley - Silver Bells
TTITLE2=Elvis Presley - O Come All Ye Faithful
TTITLE3=Elvis Presley - Santa Claus Is Back in Town
TTITLE4=Elvis Presley - Winter Wonderland
TTITLE5=Elvis Presley - Silent Night
TTITLE6=Alabama - Christmas in Dixie
TTITLE7=Alabama - Homecoming Christmas
TTITLE8=Alabama - Christmas Memories
TTITLE9=Alabama - Thistlehair the Christmas Bear
TTITLE10=Alabama - Tonight Is Christmas
TTITLE11=Alabama - Tennessee Christmas
EXTD=
EXTT0=
EXTT1=
EXTT2=
EXTT3=
EXTT4=
EXTT5=
EXTT6=
EXTT7=
EXTT8=
EXTT9=
EXTT10=
EXTT11=
PLAYORDER=
